<?xml version="1.0" standalone="no"?>
<!DOCTYPE svg PUBLIC "-//W3C//DTD SVG 20010904//EN"
 "http://www.w3.org/TR/2001/REC-SVG-20010904/DTD/svg10.dtd">
<svg version="1.0" xmlns="http://www.w3.org/2000/svg"
 width="1024.000000pt" height="1024.000000pt" viewBox="0 0 1024.000000 1024.000000"
 preserveAspectRatio="xMidYMid meet">

<g transform="translate(0.000000,1024.000000) scale(0.100000,-0.100000)"
fill="#000000" stroke="none">
<path d="M4855 9834 c-1175 -75 -2247 -556 -3070 -1379 -693 -693 -1151 -1574
-1315 -2531 -53 -307 -64 -448 -64 -804 0 -356 11 -497 64 -804 163 -951 621
-1834 1305 -2521 1064 -1067 2536 -1559 4030 -1344 1322 190 2517 952 3257
2079 338 513 563 1059 683 1655 313 1553 -166 3141 -1285 4265 -363 365 -753
648 -1210 879 -521 264 -1055 422 -1645 486 -133 15 -622 27 -750 19z m595
-1709 c317 -37 631 -124 921 -257 l75 -35 60 56 c250 232 636 267 935 86 172
-105 308 -294 354 -495 23 -99 23 -262 0 -355 -23 -91 -74 -201 -129 -279
l-44 -62 40 -70 c95 -162 251 -501 303 -659 113 -342 164 -697 152 -1050 -25
-699 -296 -1204 -914 -1703 -77 -61 -93 -79 -93 -102 0 -37 28 -69 66 -76 28
-5 43 4 165 107 338 285 559 549 705 847 l56 112 55 -66 c244 -299 464 -727
588 -1149 l24 -80 -94 -140 c-171 -255 -342 -461 -567 -681 -718 -703 -1638
-1121 -2655 -1205 -182 -15 -654 -7 -823 15 -852 107 -1590 422 -2240 955
-223 183 -516 488 -694 725 -89 118 -226 322 -226 336 0 7 23 82 51 168 123
375 284 686 511 990 54 72 101 132 103 132 3 0 31 -53 64 -117 115 -229 257
-418 472 -628 215 -210 410 -365 459 -365 29 0 70 44 70 75 0 28 -2 30 -116
120 -340 267 -621 599 -769 908 -141 292 -193 575 -182 987 13 467 107 854
307 1256 54 109 116 229 136 265 l37 65 -46 57 c-59 72 -122 201 -147 301 -24
95 -27 258 -5 358 56 265 257 487 525 579 89 31 104 33 235 34 161 0 223 -13
350 -74 72 -34 209 -132 243 -173 11 -14 27 -9 140 42 286 129 612 218 912
249 145 15 483 12 630 -4z"/>
<path d="M3974 6750 c-99 -20 -185 -84 -232 -175 -23 -43 -27 -62 -27 -140 0
-78 4 -97 27 -140 35 -67 90 -118 162 -151 51 -23 67 -26 140 -22 132 7 218
65 275 188 34 72 35 180 3 252 -58 131 -214 215 -348 188z"/>
<path d="M6134 6750 c-99 -20 -185 -84 -232 -175 -36 -68 -38 -195 -5 -267 32
-70 94 -131 164 -163 55 -24 71 -27 143 -23 132 7 218 65 275 188 34 72 35
180 3 252 -58 131 -214 215 -348 188z"/>
<path d="M4980 5754 c-118 -23 -222 -85 -271 -162 -41 -65 -52 -113 -47 -217
3 -71 10 -103 31 -149 58 -126 150 -214 269 -257 32 -12 58 -25 58 -29 0 -3
-29 -36 -65 -73 -208 -211 -509 -274 -777 -162 -126 53 -144 58 -171 51 -41
-10 -67 -44 -67 -89 0 -49 34 -83 123 -125 193 -91 408 -111 618 -57 131 34
305 132 388 219 l34 35 63 -55 c228 -201 538 -274 835 -199 35 9 106 36 156
61 97 46 123 74 123 129 0 33 -50 85 -82 85 -25 0 -91 -23 -171 -59 -108 -50
-277 -64 -412 -36 -115 24 -240 92 -334 182 -45 43 -81 83 -81 89 0 7 15 15
34 18 113 21 241 128 303 252 37 77 38 80 38 193 0 100 -3 122 -22 157 -48 89
-99 132 -208 174 -50 19 -82 23 -200 26 -77 1 -151 0 -165 -2z"/>
</g>
</svg>
